<?xml version="1.0" encoding="utf-8"?>
<!-- Generator: Adobe Illustrator 18.0.0, SVG Export Plug-In . SVG Version: 6.00 Build 0)  -->
<!DOCTYPE svg PUBLIC "-//W3C//DTD SVG 1.1//EN" "http://www.w3.org/Graphics/SVG/1.1/DTD/svg11.dtd">
<svg version="1.1" id="Dribbble" xmlns="http://www.w3.org/2000/svg" xmlns:xlink="http://www.w3.org/1999/xlink" x="0px" y="0px"
	 viewBox="260 170 20 20" enable-background="new 260 170 20 20" xml:space="preserve">
<g>
	<polygon points="272.5,179.1 272.5,179.1 272.5,179.1 	"/>
	<path d="M278.4,176.5c-0.7-1.6-1.8-3-3.3-4c-1.5-1-3.2-1.6-5.1-1.6c-1.3,0-2.5,0.3-3.5,0.7c-1.6,0.7-3,1.8-4,3.3
		c-1,1.5-1.6,3.2-1.6,5.1v0c0,1.3,0.3,2.5,0.7,3.5c0.7,1.6,1.8,3,3.3,4c1.5,1,3.2,1.6,5.1,1.6c1.3,0,2.5-0.3,3.5-0.7
		c1.6-0.7,3-1.8,4-3.3c1-1.5,1.6-3.2,1.6-5.1C279.1,178.7,278.9,177.5,278.4,176.5z M274.4,185.5c-0.2-0.9-0.5-2.4-1.2-4.3
		c0.3,0,0.7-0.1,1-0.1c0.8,0,1.5,0.1,2.1,0.2c0.2,0,0.4,0.1,0.6,0.1c-0.2,0.9-0.5,1.6-1,2.4C275.5,184.4,275,185,274.4,185.5z
		 M277,179.4c-0.2,0-0.4-0.1-0.7-0.1c-0.6-0.1-1.4-0.2-2.3-0.2c-0.5,0-1,0-1.5,0.1c0,0,0-0.1,0-0.1c-0.1-0.2-0.2-0.5-0.3-0.7
		c1.3-0.6,2.3-1.3,2.9-1.8c0.3-0.3,0.5-0.5,0.7-0.7C276.5,176.9,276.9,178.1,277,179.4z M273.6,175.2c-0.5,0.4-1.3,1-2.4,1.4
		c-0.6-1.1-1.2-2-1.7-2.7c-0.2-0.3-0.4-0.6-0.6-0.9c0.3-0.1,0.7-0.1,1.1-0.1c1.7,0,3.2,0.6,4.4,1.5
		C274.2,174.7,274,174.9,273.6,175.2z M266.7,173.8c0.4,0.6,1.3,1.9,2.3,3.5c-2.5,0.6-4.8,0.7-5.8,0.8c0.3-0.9,0.7-1.7,1.3-2.4
		C265.1,174.9,265.9,174.2,266.7,173.8z M265.7,180c1.3-0.1,2.8-0.4,4.3-0.8c0.1,0.2,0.2,0.4,0.3,0.6c-1,0.3-1.9,0.8-2.6,1.3
		c-1.2,0.8-2,1.7-2.6,2.5c-0.2,0.3-0.4,0.6-0.6,0.8c-0.9-1.1-1.4-2.6-1.5-4.1C263.5,180.2,264.5,180.1,265.7,180z M267.2,184.2
		c0.8-0.8,2.1-1.8,3.9-2.5c0.8,2.2,1.2,4,1.4,4.9c-0.8,0.3-1.6,0.4-2.5,0.4c-1.5,0-2.9-0.5-4.1-1.3
		C266.1,185.4,266.5,184.8,267.2,184.2z"/>
</g>
</svg>
